<?xml version="1.0" encoding="UTF-8" standalone="no"?><svg xmlns="http://www.w3.org/2000/svg" xmlns:xlink="http://www.w3.org/1999/xlink" contentScriptType="application/ecmascript" contentStyleType="text/css" height="725px" preserveAspectRatio="none" style="width:2130px;height:725px;background:#FFFFFF;" version="1.1" viewBox="0 0 2130 725" width="2130px" zoomAndPan="magnify"><defs><filter height="300%" id="f76pqqq76zark" width="300%" x="-1" y="-1"><feGaussianBlur result="blurOut" stdDeviation="2.0"/><feColorMatrix in="blurOut" result="blurOut2" type="matrix" values="0 0 0 0 0 0 0 0 0 0 0 0 0 0 0 0 0 0 .4 0"/><feOffset dx="4.0" dy="4.0" in="blurOut2" result="blurOut3"/><feBlend in="SourceGraphic" in2="blurOut3" mode="normal"/></filter></defs><g><!--MD5=[e6cbe51a8724550c97c7ca2a47c3caae]
class PlaywrightDriver--><rect codeLine="1" fill="#FEFECE" filter="url(#f76pqqq76zark)" height="48" id="PlaywrightDriver" style="stroke:#A80036;stroke-width:1.5;" width="129" x="977.5" y="7"/><ellipse cx="992.5" cy="23" fill="#ADD1B2" rx="11" ry="11" style="stroke:#A80036;stroke-width:1.0;"/><path d="M994.8438,18.6719 C993.9063,18.2344 993.3125,18.0938 992.4375,18.0938 C989.8125,18.0938 987.8125,20.1719 987.8125,22.8906 L987.8125,24.0156 C987.8125,26.5938 989.9219,28.4844 992.8125,28.4844 C994.0313,28.4844 995.1875,28.1875 995.9375,27.6406 C996.5156,27.2344 996.8438,26.7813 996.8438,26.3906 C996.8438,25.9375 996.4531,25.5469 995.9844,25.5469 C995.7656,25.5469 995.5625,25.625 995.375,25.8125 C994.9219,26.2969 994.9219,26.2969 994.7344,26.3906 C994.3125,26.6563 993.625,26.7813 992.8594,26.7813 C990.8125,26.7813 989.5156,25.6875 989.5156,23.9844 L989.5156,22.8906 C989.5156,21.1094 990.7656,19.7969 992.5,19.7969 C993.0781,19.7969 993.6875,19.9531 994.1563,20.2031 C994.6406,20.4844 994.8125,20.7031 994.9063,21.1094 C994.9688,21.5156 995,21.6406 995.1406,21.7656 C995.2813,21.9063 995.5156,22.0156 995.7344,22.0156 C996,22.0156 996.2656,21.875 996.4375,21.6563 C996.5469,21.5 996.5781,21.3125 996.5781,20.8906 L996.5781,19.4688 C996.5781,19.0313 996.5625,18.9063 996.4688,18.75 C996.3125,18.4844 996.0313,18.3438 995.7344,18.3438 C995.4375,18.3438 995.2344,18.4375 995.0156,18.75 L994.8438,18.6719 Z " fill="#000000"/><text fill="#000000" font-family="sans-serif" font-size="12" lengthAdjust="spacing" textLength="97" x="1006.5" y="27.1543">PlaywrightDriver</text><line style="stroke:#A80036;stroke-width:1.5;" x1="978.5" x2="1105.5" y1="39" y2="39"/><line style="stroke:#A80036;stroke-width:1.5;" x1="978.5" x2="1105.5" y1="47" y2="47"/><!--MD5=[c285550e8b509c15c1d577dc43d884d7]
class FlutterDriver--><rect codeLine="5" fill="#FEFECE" filter="url(#f76pqqq76zark)" height="48" id="FlutterDriver" style="stroke:#A80036;stroke-width:1.5;" width="107" x="935.5" y="140.5"/><ellipse cx="950.5" cy="156.5" fill="#ADD1B2" rx="11" ry="11" style="stroke:#A80036;stroke-width:1.0;"/><path d="M952.8438,152.1719 C951.9063,151.7344 951.3125,151.5938 950.4375,151.5938 C947.8125,151.5938 945.8125,153.6719 945.8125,156.3906 L945.8125,157.5156 C945.8125,160.0938 947.9219,161.9844 950.8125,161.9844 C952.0313,161.9844 953.1875,161.6875 953.9375,161.1406 C954.5156,160.7344 954.8438,160.2813 954.8438,159.8906 C954.8438,159.4375 954.4531,159.0469 953.9844,159.0469 C953.7656,159.0469 953.5625,159.125 953.375,159.3125 C952.9219,159.7969 952.9219,159.7969 952.7344,159.8906 C952.3125,160.1563 951.625,160.2813 950.8594,160.2813 C948.8125,160.2813 947.5156,159.1875 947.5156,157.4844 L947.5156,156.3906 C947.5156,154.6094 948.7656,153.2969 950.5,153.2969 C951.0781,153.2969 951.6875,153.4531 952.1563,153.7031 C952.6406,153.9844 952.8125,154.2031 952.9063,154.6094 C952.9688,155.0156 953,155.1406 953.1406,155.2656 C953.2813,155.4063 953.5156,155.5156 953.7344,155.5156 C954,155.5156 954.2656,155.375 954.4375,155.1563 C954.5469,155 954.5781,154.8125 954.5781,154.3906 L954.5781,152.9688 C954.5781,152.5313 954.5625,152.4063 954.4688,152.25 C954.3125,151.9844 954.0313,151.8438 953.7344,151.8438 C953.4375,151.8438 953.2344,151.9375 953.0156,152.25 L952.8438,152.1719 Z " fill="#000000"/><text fill="#000000" font-family="sans-serif" font-size="12" lengthAdjust="spacing" textLength="75" x="964.5" y="160.6543">FlutterDriver</text><line style="stroke:#A80036;stroke-width:1.5;" x1="936.5" x2="1041.5" y1="172.5" y2="172.5"/><line style="stroke:#A80036;stroke-width:1.5;" x1="936.5" x2="1041.5" y1="180.5" y2="180.5"/><!--MD5=[4ea3602fb2f8713cd3269662ee81c072]
class WorldCucumber--><rect codeLine="10" fill="#FEFECE" filter="url(#f76pqqq76zark)" height="99.2188" id="WorldCucumber" style="stroke:#A80036;stroke-width:1.5;" width="324" x="1149" y="115"/><ellipse cx="1258.25" cy="131" fill="#ADD1B2" rx="11" ry="11" style="stroke:#A80036;stroke-width:1.0;"/><path d="M1260.5938,126.6719 C1259.6563,126.2344 1259.0625,126.0938 1258.1875,126.0938 C1255.5625,126.0938 1253.5625,128.1719 1253.5625,130.8906 L1253.5625,132.0156 C1253.5625,134.5938 1255.6719,136.4844 1258.5625,136.4844 C1259.7813,136.4844 1260.9375,136.1875 1261.6875,135.6406 C1262.2656,135.2344 1262.5938,134.7813 1262.5938,134.3906 C1262.5938,133.9375 1262.2031,133.5469 1261.7344,133.5469 C1261.5156,133.5469 1261.3125,133.625 1261.125,133.8125 C1260.6719,134.2969 1260.6719,134.2969 1260.4844,134.3906 C1260.0625,134.6563 1259.375,134.7813 1258.6094,134.7813 C1256.5625,134.7813 1255.2656,133.6875 1255.2656,131.9844 L1255.2656,130.8906 C1255.2656,129.1094 1256.5156,127.7969 1258.25,127.7969 C1258.8281,127.7969 1259.4375,127.9531 1259.9063,128.2031 C1260.3906,128.4844 1260.5625,128.7031 1260.6563,129.1094 C1260.7188,129.5156 1260.75,129.6406 1260.8906,129.7656 C1261.0313,129.9063 1261.2656,130.0156 1261.4844,130.0156 C1261.75,130.0156 1262.0156,129.875 1262.1875,129.6563 C1262.2969,129.5 1262.3281,129.3125 1262.3281,128.8906 L1262.3281,127.4688 C1262.3281,127.0313 1262.3125,126.9063 1262.2188,126.75 C1262.0625,126.4844 1261.7813,126.3438 1261.4844,126.3438 C1261.1875,126.3438 1260.9844,126.4375 1260.7656,126.75 L1260.5938,126.6719 Z " fill="#000000"/><text fill="#000000" font-family="sans-serif" font-size="12" lengthAdjust="spacing" textLength="97" x="1278.75" y="135.1543">WorldCucumber</text><line style="stroke:#A80036;stroke-width:1.5;" x1="1150" x2="1472" y1="147" y2="147"/><text fill="#000000" font-family="sans-serif" font-size="11" lengthAdjust="spacing" textLength="207" x="1155" y="161.2104">readonly attach: ICreateAttachment;</text><text fill="#000000" font-family="sans-serif" font-size="11" lengthAdjust="spacing" textLength="143" x="1155" y="174.0151">readonly log: ICreateLog;</text><text fill="#000000" font-family="sans-serif" font-size="11" lengthAdjust="spacing" textLength="151" x="1155" y="186.8198">readonly parameters: any;</text><line style="stroke:#A80036;stroke-width:1.5;" x1="1150" x2="1472" y1="193.4141" y2="193.4141"/><text fill="#000000" font-family="sans-serif" font-size="11" lengthAdjust="spacing" textLength="312" x="1155" y="207.6245">constructor({ attach, log, parameters }: IWorldOptions);</text><!--MD5=[1e3f27ac568331e73b3c98e691bd888a]
class AbstractDriver--><rect codeLine="17" fill="#FEFECE" filter="url(#f76pqqq76zark)" height="240.0703" id="AbstractDriver" style="stroke:#A80036;stroke-width:1.5;" width="538" x="827" y="274"/><ellipse cx="1048.25" cy="290" fill="#A9DCDF" rx="11" ry="11" style="stroke:#A80036;stroke-width:1.0;"/><path d="M1050.3281,291.8125 L1050.7188,292.7969 L1050.3281,292.7969 C1049.875,292.7969 1049.7656,292.8125 1049.6094,292.9219 C1049.3594,293.0781 1049.2031,293.3594 1049.2031,293.6563 C1049.2031,293.9219 1049.3438,294.1719 1049.5625,294.3281 C1049.7031,294.4531 1049.9063,294.5 1050.3281,294.5 L1052.6875,294.5 C1053.0469,294.5 1053.2656,294.4688 1053.4063,294.375 C1053.6563,294.2344 1053.8125,293.9375 1053.8125,293.6563 C1053.8125,293.375 1053.6719,293.125 1053.4531,292.9688 C1053.2813,292.8281 1053.125,292.7969 1052.6563,292.7969 L1049.2656,284.5938 L1045.5938,284.5938 C1045.1406,284.5938 1045.0156,284.6094 1044.8594,284.7031 C1044.6094,284.875 1044.4531,285.1563 1044.4531,285.4375 C1044.4531,285.7188 1044.5938,285.9688 1044.8125,286.1406 C1044.9844,286.25 1045.1563,286.2813 1045.5938,286.2813 L1046.6719,286.2813 L1044.0313,292.7969 C1043.6094,292.7969 1043.4531,292.8125 1043.2969,292.9219 C1043.0469,293.0781 1042.8906,293.3594 1042.8906,293.6563 C1042.8906,294.2188 1043.2656,294.5 1044.0156,294.5 L1046.2813,294.5 C1046.6406,294.5 1046.8594,294.4688 1046.9844,294.375 C1047.25,294.2344 1047.3906,293.9375 1047.3906,293.6563 C1047.3906,293.375 1047.2656,293.125 1047.0469,292.9531 C1046.875,292.8281 1046.7344,292.7969 1046.2813,292.7969 L1045.8906,292.7969 L1046.2813,291.8125 L1050.3281,291.8125 Z M1049.625,290.1094 L1046.9531,290.1094 L1048.2969,286.8438 L1049.625,290.1094 Z " fill="#000000"/><text fill="#000000" font-family="sans-serif" font-size="12" font-style="italic" lengthAdjust="spacing" textLength="87" x="1068.75" y="294.1543">AbstractDriver</text><line style="stroke:#A80036;stroke-width:1.5;" x1="828" x2="1364" y1="306" y2="306"/><text fill="#000000" font-family="sans-serif" font-size="11" lengthAdjust="spacing" textLength="156" x="833" y="320.2104">flutterDriver?: FlutterDriver;</text><text fill="#000000" font-family="sans-serif" font-size="11" lengthAdjust="spacing" textLength="201" x="833" y="333.0151">playwrightDriver?: PlaywrightDriver;</text><text fill="#000000" font-family="sans-serif" font-size="11" lengthAdjust="spacing" textLength="72" x="833" y="345.8198">origin: string;</text><text fill="#000000" font-family="sans-serif" font-size="11" lengthAdjust="spacing" textLength="162" x="833" y="358.6245">readonly driverName: string;</text><text fill="#000000" font-family="sans-serif" font-size="11" lengthAdjust="spacing" textLength="178" x="833" y="371.4292">private developMode: boolean;</text><text fill="#000000" font-family="sans-serif" font-size="11" lengthAdjust="spacing" textLength="152" x="833" y="384.2339">private headless: boolean;</text><line style="stroke:#A80036;stroke-width:1.5;" x1="828" x2="1364" y1="390.8281" y2="390.8281"/><text fill="#000000" font-family="sans-serif" font-size="11" lengthAdjust="spacing" textLength="261" x="833" y="405.0386">waitForConnection(url: string): Promise&lt;void&gt;;</text><text fill="#000000" font-family="sans-serif" font-size="11" lengthAdjust="spacing" textLength="414" x="833" y="417.8433">connectPlaywrightDriver(options: AbstractDriverOptions): Promise&lt;void&gt;;</text><text fill="#000000" font-family="sans-serif" font-size="11" lengthAdjust="spacing" textLength="218" x="833" y="430.6479">quitPlaywrightDriver(): Promise&lt;void&gt;;</text><text fill="#000000" font-family="sans-serif" font-size="11" lengthAdjust="spacing" textLength="526" x="833" y="443.4526">instructionDriver&lt;T&gt;(description: string, fn: (context: T) =&gt; Promise&lt;void&gt;): Promise&lt;void&gt;;</text><text fill="#000000" font-family="sans-serif" font-size="11" lengthAdjust="spacing" textLength="250" x="833" y="456.2573">setOffline(offline: boolean): Promise&lt;void&gt;;</text><text fill="#000000" font-family="sans-serif" font-size="11" lengthAdjust="spacing" textLength="260" x="833" y="469.062">screenshotPlaywrightDriver(): Promise&lt;void&gt;;</text><text fill="#000000" font-family="sans-serif" font-size="11" lengthAdjust="spacing" textLength="175" x="833" y="481.8667">abstract quit(): Promise&lt;void&gt;;</text><text fill="#000000" font-family="sans-serif" font-size="11" lengthAdjust="spacing" textLength="199" x="833" y="494.6714">abstract connect(): Promise&lt;void&gt;;</text><text fill="#000000" font-family="sans-serif" font-size="11" lengthAdjust="spacing" textLength="217" x="833" y="507.4761">abstract screenshot(): Promise&lt;void&gt;;</text><!--MD5=[6db1fbc7fa334e8a3d602226b5dd072e]
class TeacherDriver--><rect codeLine="36" fill="#FEFECE" filter="url(#f76pqqq76zark)" height="112.0234" id="TeacherDriver" style="stroke:#A80036;stroke-width:1.5;" width="706" x="7" y="587"/><ellipse cx="312.75" cy="603" fill="#ADD1B2" rx="11" ry="11" style="stroke:#A80036;stroke-width:1.0;"/><path d="M315.0938,598.6719 C314.1563,598.2344 313.5625,598.0938 312.6875,598.0938 C310.0625,598.0938 308.0625,600.1719 308.0625,602.8906 L308.0625,604.0156 C308.0625,606.5938 310.1719,608.4844 313.0625,608.4844 C314.2813,608.4844 315.4375,608.1875 316.1875,607.6406 C316.7656,607.2344 317.0938,606.7813 317.0938,606.3906 C317.0938,605.9375 316.7031,605.5469 316.2344,605.5469 C316.0156,605.5469 315.8125,605.625 315.625,605.8125 C315.1719,606.2969 315.1719,606.2969 314.9844,606.3906 C314.5625,606.6563 313.875,606.7813 313.1094,606.7813 C311.0625,606.7813 309.7656,605.6875 309.7656,603.9844 L309.7656,602.8906 C309.7656,601.1094 311.0156,599.7969 312.75,599.7969 C313.3281,599.7969 313.9375,599.9531 314.4063,600.2031 C314.8906,600.4844 315.0625,600.7031 315.1563,601.1094 C315.2188,601.5156 315.25,601.6406 315.3906,601.7656 C315.5313,601.9063 315.7656,602.0156 315.9844,602.0156 C316.25,602.0156 316.5156,601.875 316.6875,601.6563 C316.7969,601.5 316.8281,601.3125 316.8281,600.8906 L316.8281,599.4688 C316.8281,599.0313 316.8125,598.9063 316.7188,598.75 C316.5625,598.4844 316.2813,598.3438 315.9844,598.3438 C315.6875,598.3438 315.4844,598.4375 315.2656,598.75 L315.0938,598.6719 Z " fill="#000000"/><text fill="#000000" font-family="sans-serif" font-size="12" lengthAdjust="spacing" textLength="86" x="333.25" y="607.1543">TeacherDriver</text><line style="stroke:#A80036;stroke-width:1.5;" x1="8" x2="712" y1="619" y2="619"/><text fill="#000000" font-family="sans-serif" font-size="11" lengthAdjust="spacing" textLength="120" x="13" y="633.2104">driver?: FlutterDriver;</text><text fill="#000000" font-family="sans-serif" font-size="11" lengthAdjust="spacing" textLength="108" x="13" y="646.0151">driverName: string;</text><line style="stroke:#A80036;stroke-width:1.5;" x1="8" x2="712" y1="652.6094" y2="652.6094"/><text fill="#000000" font-family="sans-serif" font-size="11" lengthAdjust="spacing" textLength="176" x="13" y="666.8198">connect: () =&gt; Promise&lt;void&gt;;</text><text fill="#000000" font-family="sans-serif" font-size="11" lengthAdjust="spacing" textLength="152" x="13" y="679.6245">quit: () =&gt; Promise&lt;void&gt;;</text><text fill="#000000" font-family="sans-serif" font-size="11" lengthAdjust="spacing" textLength="694" x="13" y="692.4292">instruction( this: TeacherInterface, description: string, fn: (teacher: TeacherInterface) =&gt; Promise&lt;void&gt;): Promise&lt;void&gt;;</text><!--MD5=[18034444db98e9ede1954c6ce81b0a90]
class LearnerDriver--><rect codeLine="44" fill="#FEFECE" filter="url(#f76pqqq76zark)" height="112.0234" id="LearnerDriver" style="stroke:#A80036;stroke-width:1.5;" width="696" x="748" y="587"/><ellipse cx="1050.25" cy="603" fill="#ADD1B2" rx="11" ry="11" style="stroke:#A80036;stroke-width:1.0;"/><path d="M1052.5938,598.6719 C1051.6563,598.2344 1051.0625,598.0938 1050.1875,598.0938 C1047.5625,598.0938 1045.5625,600.1719 1045.5625,602.8906 L1045.5625,604.0156 C1045.5625,606.5938 1047.6719,608.4844 1050.5625,608.4844 C1051.7813,608.4844 1052.9375,608.1875 1053.6875,607.6406 C1054.2656,607.2344 1054.5938,606.7813 1054.5938,606.3906 C1054.5938,605.9375 1054.2031,605.5469 1053.7344,605.5469 C1053.5156,605.5469 1053.3125,605.625 1053.125,605.8125 C1052.6719,606.2969 1052.6719,606.2969 1052.4844,606.3906 C1052.0625,606.6563 1051.375,606.7813 1050.6094,606.7813 C1048.5625,606.7813 1047.2656,605.6875 1047.2656,603.9844 L1047.2656,602.8906 C1047.2656,601.1094 1048.5156,599.7969 1050.25,599.7969 C1050.8281,599.7969 1051.4375,599.9531 1051.9063,600.2031 C1052.3906,600.4844 1052.5625,600.7031 1052.6563,601.1094 C1052.7188,601.5156 1052.75,601.6406 1052.8906,601.7656 C1053.0313,601.9063 1053.2656,602.0156 1053.4844,602.0156 C1053.75,602.0156 1054.0156,601.875 1054.1875,601.6563 C1054.2969,601.5 1054.3281,601.3125 1054.3281,600.8906 L1054.3281,599.4688 C1054.3281,599.0313 1054.3125,598.9063 1054.2188,598.75 C1054.0625,598.4844 1053.7813,598.3438 1053.4844,598.3438 C1053.1875,598.3438 1052.9844,598.4375 1052.7656,598.75 L1052.5938,598.6719 Z " fill="#000000"/><text fill="#000000" font-family="sans-serif" font-size="12" lengthAdjust="spacing" textLength="83" x="1070.75" y="607.1543">LearnerDriver</text><line style="stroke:#A80036;stroke-width:1.5;" x1="749" x2="1443" y1="619" y2="619"/><text fill="#000000" font-family="sans-serif" font-size="11" lengthAdjust="spacing" textLength="120" x="754" y="633.2104">driver?: FlutterDriver;</text><text fill="#000000" font-family="sans-serif" font-size="11" lengthAdjust="spacing" textLength="108" x="754" y="646.0151">driverName: string;</text><line style="stroke:#A80036;stroke-width:1.5;" x1="749" x2="1443" y1="652.6094" y2="652.6094"/><text fill="#000000" font-family="sans-serif" font-size="11" lengthAdjust="spacing" textLength="176" x="754" y="666.8198">connect: () =&gt; Promise&lt;void&gt;;</text><text fill="#000000" font-family="sans-serif" font-size="11" lengthAdjust="spacing" textLength="152" x="754" y="679.6245">quit: () =&gt; Promise&lt;void&gt;;</text><text fill="#000000" font-family="sans-serif" font-size="11" lengthAdjust="spacing" textLength="684" x="754" y="692.4292">instruction(this: LearnerInterface, description: string, fn: (teacher: LearnerInterface) =&gt; Promise&lt;void&gt;): Promise&lt;void&gt;;</text><!--MD5=[f05355c5a6d8a51b0ff5bd661be90954]
class CMSDriver--><rect codeLine="52" fill="#FEFECE" filter="url(#f76pqqq76zark)" height="137.6328" id="CMSDriver" style="stroke:#A80036;stroke-width:1.5;" width="637" x="1479.5" y="574"/><ellipse cx="1762.25" cy="590" fill="#ADD1B2" rx="11" ry="11" style="stroke:#A80036;stroke-width:1.0;"/><path d="M1764.5938,585.6719 C1763.6563,585.2344 1763.0625,585.0938 1762.1875,585.0938 C1759.5625,585.0938 1757.5625,587.1719 1757.5625,589.8906 L1757.5625,591.0156 C1757.5625,593.5938 1759.6719,595.4844 1762.5625,595.4844 C1763.7813,595.4844 1764.9375,595.1875 1765.6875,594.6406 C1766.2656,594.2344 1766.5938,593.7813 1766.5938,593.3906 C1766.5938,592.9375 1766.2031,592.5469 1765.7344,592.5469 C1765.5156,592.5469 1765.3125,592.625 1765.125,592.8125 C1764.6719,593.2969 1764.6719,593.2969 1764.4844,593.3906 C1764.0625,593.6563 1763.375,593.7813 1762.6094,593.7813 C1760.5625,593.7813 1759.2656,592.6875 1759.2656,590.9844 L1759.2656,589.8906 C1759.2656,588.1094 1760.5156,586.7969 1762.25,586.7969 C1762.8281,586.7969 1763.4375,586.9531 1763.9063,587.2031 C1764.3906,587.4844 1764.5625,587.7031 1764.6563,588.1094 C1764.7188,588.5156 1764.75,588.6406 1764.8906,588.7656 C1765.0313,588.9063 1765.2656,589.0156 1765.4844,589.0156 C1765.75,589.0156 1766.0156,588.875 1766.1875,588.6563 C1766.2969,588.5 1766.3281,588.3125 1766.3281,587.8906 L1766.3281,586.4688 C1766.3281,586.0313 1766.3125,585.9063 1766.2188,585.75 C1766.0625,585.4844 1765.7813,585.3438 1765.4844,585.3438 C1765.1875,585.3438 1764.9844,585.4375 1764.7656,585.75 L1764.5938,585.6719 Z " fill="#000000"/><text fill="#000000" font-family="sans-serif" font-size="12" lengthAdjust="spacing" textLength="63" x="1782.75" y="594.1543">CMSDriver</text><line style="stroke:#A80036;stroke-width:1.5;" x1="1480.5" x2="2115.5" y1="606" y2="606"/><text fill="#000000" font-family="sans-serif" font-size="11" lengthAdjust="spacing" textLength="73" x="1485.5" y="620.2104">page?: Page;</text><text fill="#000000" font-family="sans-serif" font-size="11" lengthAdjust="spacing" textLength="150" x="1485.5" y="633.0151">context?: BrowserContext;</text><text fill="#000000" font-family="sans-serif" font-size="11" lengthAdjust="spacing" textLength="72" x="1485.5" y="645.8198">origin: string;</text><text fill="#000000" font-family="sans-serif" font-size="11" lengthAdjust="spacing" textLength="168" x="1485.5" y="658.6245">graphqlClient?: GraphqlClient;</text><line style="stroke:#A80036;stroke-width:1.5;" x1="1480.5" x2="2115.5" y1="665.2188" y2="665.2188"/><text fill="#000000" font-family="sans-serif" font-size="11" lengthAdjust="spacing" textLength="176" x="1485.5" y="679.4292">connect: () =&gt; Promise&lt;void&gt;;</text><text fill="#000000" font-family="sans-serif" font-size="11" lengthAdjust="spacing" textLength="152" x="1485.5" y="692.2339">quit: () =&gt; Promise&lt;void&gt;;</text><text fill="#000000" font-family="sans-serif" font-size="11" lengthAdjust="spacing" textLength="625" x="1485.5" y="705.0386">instruction(this: CMSInterface, description: string, fn: (cms: CMSInterface) =&gt; Promise&lt;void&gt;): Promise&lt;void&gt;;</text><!--MD5=[1ce6118f9cd4beb02c22c45512197ade]
reverse link AbstractDriver to CMSDriver--><path codeLine="63" d="M1384.42,496.482 C1458.58,522.574 1536.59,550.021 1604.62,573.959 " fill="none" id="AbstractDriver-backto-CMSDriver" style="stroke:#A80036;stroke-width:1.0;"/><polygon fill="none" points="1381.7,502.943,1365.15,489.702,1386.34,489.737,1381.7,502.943" style="stroke:#A80036;stroke-width:1.0;"/><!--MD5=[3097d0f6bace62274165f357318bfd24]
reverse link AbstractDriver to TeacherDriver--><path codeLine="64" d="M807.751,491.736 C711.442,524.057 607.477,558.947 523.991,586.965 " fill="none" id="AbstractDriver-backto-TeacherDriver" style="stroke:#A80036;stroke-width:1.0;"/><polygon fill="none" points="805.714,485.036,826.902,485.309,810.169,498.308,805.714,485.036" style="stroke:#A80036;stroke-width:1.0;"/><!--MD5=[ee873bdbd4748e78aa1fc3e3cddfb853]
reverse link AbstractDriver to LearnerDriver--><path codeLine="65" d="M1096,534.381 C1096,552.916 1096,570.966 1096,586.823 " fill="none" id="AbstractDriver-backto-LearnerDriver" style="stroke:#A80036;stroke-width:1.0;"/><polygon fill="none" points="1089,534.159,1096,514.159,1103,534.159,1089,534.159" style="stroke:#A80036;stroke-width:1.0;"/><!--MD5=[56ec93b6d503855e5491f16261b53bea]
reverse link WorldCucumber to AbstractDriver--><path codeLine="68" d="M1251.19,228.79 C1237.84,242.919 1223.25,258.35 1208.54,273.915 " fill="none" id="WorldCucumber-backto-AbstractDriver" style="stroke:#A80036;stroke-width:1.0;"/><polygon fill="none" points="1246.32,223.753,1265.14,214.025,1256.49,233.369,1246.32,223.753" style="stroke:#A80036;stroke-width:1.0;"/><!--MD5=[d6101e81ef11d0b3939a6c06d9bab2d9]
reverse link PlaywrightDriver to AbstractDriver--><path codeLine="69" d="M1052.07,75.077 C1054.86,87.881 1057.75,101.969 1060,115 C1068.97,166.912 1076.8,224.629 1082.83,273.96 " fill="none" id="PlaywrightDriver-backto-AbstractDriver" style="stroke:#A80036;stroke-width:1.0;"/><polygon fill="none" points="1045.15,76.202,1047.57,55.152,1058.8,73.121,1045.15,76.202" style="stroke:#A80036;stroke-width:1.0;"/><!--MD5=[9a37d0cbfff01ae4c4f10f21c3fa48ca]
reverse link FlutterDriver to AbstractDriver--><path codeLine="70" d="M1008.49,206.934 C1017.47,226.035 1028.64,249.783 1039.96,273.853 " fill="none" id="FlutterDriver-backto-AbstractDriver" style="stroke:#A80036;stroke-width:1.0;"/><polygon fill="none" points="1002.026,209.643,999.849,188.566,1014.7,203.685,1002.026,209.643" style="stroke:#A80036;stroke-width:1.0;"/><!--MD5=[253ecc00dae318e2b53a077ede1e24ae]
reverse link PlaywrightDriver to FlutterDriver--><path codeLine="72" d="M1025.14,73.831 C1016.31,95.732 1005.834,121.734 998.438,140.083 " fill="none" id="PlaywrightDriver-backto-FlutterDriver" style="stroke:#A80036;stroke-width:1.0;"/><polygon fill="none" points="1018.68,71.14,1032.65,55.207,1031.66,76.374,1018.68,71.14" style="stroke:#A80036;stroke-width:1.0;"/><!--MD5=[287a5038d9cce1a200191a147ce5f90d]
@startuml
class "PlaywrightDriver" {

}

class "FlutterDriver" {

}


class "WorldCucumber" {
    readonly attach: ICreateAttachment;
    readonly log: ICreateLog;
    readonly parameters: any;
    constructor({ attach, log, parameters }: IWorldOptions);
}

abstract class "AbstractDriver" {
    flutterDriver?: FlutterDriver;
    playwrightDriver?: PlaywrightDriver;
    origin: string;
    readonly driverName: string;
    private developMode: boolean;
    private headless: boolean;
    waitForConnection(url: string): Promise<void>;
    connectPlaywrightDriver(options: AbstractDriverOptions): Promise<void>;
    quitPlaywrightDriver(): Promise<void>;
    instructionDriver<T>(description: string, fn: (context: T) => Promise<void>): Promise<void>;
    setOffline(offline: boolean): Promise<void>;
    screenshotPlaywrightDriver(): Promise<void>;
    abstract quit(): Promise<void>;
    abstract connect(): Promise<void>;
    abstract screenshot(): Promise<void>;
}


class "TeacherDriver" {
    driver?: FlutterDriver;
    driverName: string;
    connect: () => Promise<void>;
    quit: () => Promise<void>;
    instruction( this: TeacherInterface, description: string, fn: (teacher: TeacherInterface) => Promise<void>): Promise<void>;

}
class "LearnerDriver" {
    driver?: FlutterDriver;
    driverName: string;
    connect: () => Promise<void>;
    quit: () => Promise<void>;
    instruction(this: LearnerInterface, description: string, fn: (teacher: LearnerInterface) => Promise<void>): Promise<void>;

}
class "CMSDriver" {
    page?: Page;
    context?: BrowserContext;
    origin: string;
    graphqlClient?: GraphqlClient;
    connect: () => Promise<void>;
    quit: () => Promise<void>;
    instruction(this: CMSInterface, description: string, fn: (cms: CMSInterface) => Promise<void>): Promise<void>;

}

AbstractDriver <|- - CMSDriver
AbstractDriver <|- - TeacherDriver
AbstractDriver <|- - LearnerDriver


WorldCucumber <|- - AbstractDriver
PlaywrightDriver <|- - AbstractDriver
FlutterDriver <|- - AbstractDriver

PlaywrightDriver <|- - FlutterDriver
@enduml

PlantUML version 1.2021.10beta2(Unknown compile time)
(GPL source distribution)
Java Runtime: Java(TM) SE Runtime Environment
JVM: Java HotSpot(TM) 64-Bit Server VM
Default Encoding: UTF-8
Language: en
Country: US
--></g></svg>